<?xml version="1.0" encoding="utf-8"?>
<!-- Generator: Adobe Illustrator 16.0.0, SVG Export Plug-In . SVG Version: 6.00 Build 0)  -->
<!DOCTYPE svg PUBLIC "-//W3C//DTD SVG 1.1//EN" "http://www.w3.org/Graphics/SVG/1.1/DTD/svg11.dtd">
<svg version="1.1" id="Calque_1" xmlns="http://www.w3.org/2000/svg" xmlns:xlink="http://www.w3.org/1999/xlink" x="0px" y="0px"
	 width="230px" height="63px" viewBox="0 0 230 63" enable-background="new 0 0 230 63" xml:space="preserve">
<g>
	<g>
		<path fill="#1E1E1C" d="M1.117,14.062V13.99C1.117,7.125,6,0.7,13.819,0.7c3.929,0,6.354,1.175,8.92,3.304l-0.513,0.625
			c-2.387-1.946-4.772-3.195-8.444-3.195c-7.232,0-11.857,6.168-11.857,12.521v0.073c0,6.682,4.406,12.519,11.895,12.519
			c3.82,0,6.977-1.689,9.143-3.524v-8.26h-9.473v-0.807h10.28v9.361c-2.425,2.203-5.838,3.965-9.987,3.965
			C5.741,27.281,1.117,21.222,1.117,14.062z"/>
		<path fill="#1E1E1C" d="M34.52,1.141h17.954v0.734H35.327V13.55h15.567v0.734H35.327v11.821h17.329v0.735H34.52V1.141z"/>
		<path fill="#1E1E1C" d="M62.455,1.141h0.696l19.531,24.378V1.141h0.771V26.84h-0.696L63.226,2.462V26.84h-0.771V1.141z"/>
		<path fill="#1E1E1C" d="M94.758,1.141h17.952v0.734H95.564V13.55h15.566v0.734H95.564v11.821h17.328v0.735H94.758V1.141z"/>
		<path fill="#1E1E1C" d="M120.231,1.141h0.882l11.124,24.745L143.36,1.141h0.845L132.53,27.023h-0.624L120.231,1.141z"/>
		<path fill="#1E1E1C" d="M159.288,0.957h0.696l12.371,25.883h-0.88l-3.671-7.711H151.43l-3.67,7.711h-0.845L159.288,0.957z
			 M167.437,18.395l-7.819-16.373l-7.82,16.373H167.437z"/>
		<path fill="#1E1E1C" d="M0.417,48.709v-0.072c0-7.232,5.286-13.291,12.629-13.291c4.846,0,7.379,1.799,9.766,4.076l-0.552,0.551
			c-2.056-1.982-4.662-3.893-9.251-3.893c-6.828,0-11.786,5.801-11.786,12.521v0.072c0,6.793,5.031,12.52,11.786,12.52
			c4.185,0,7.308-1.984,9.361-4.186l0.588,0.551c-2.239,2.349-5.471,4.369-9.986,4.369C5.739,61.928,0.417,55.979,0.417,48.709z"/>
		<path fill="#1E1E1C" d="M41.786,35.604h0.698l12.372,25.883h-0.88l-3.671-7.711H33.931l-3.672,7.711h-0.843L41.786,35.604z
			 M49.938,53.041L42.117,36.67l-7.819,16.371H49.938z"/>
		<path fill="#1E1E1C" d="M63.702,35.787h0.771L75.67,51.721l11.197-15.934h0.734v25.699h-0.808V37.145L75.67,53.006h-0.036
			L64.509,37.145v24.342h-0.807V35.787z"/>
		<path fill="#1E1E1C" d="M98.903,35.787h17.954v0.734H99.712v11.676h15.565v0.734H99.712v11.82h17.327v0.734H98.903V35.787z"/>
		<path fill="#1E1E1C" d="M126.838,35.787h10.501c3.338,0,5.8,0.846,7.377,2.424c1.176,1.174,1.836,2.79,1.836,4.771v0.074
			c0,4.332-3.45,6.902-8.408,7.195l8.557,11.234h-0.993l-8.517-11.197h-0.11h-9.436v11.197h-0.807V35.787z M136.935,49.555
			c5.946,0,8.809-2.826,8.809-6.461V43.02c0-4.076-3.156-6.498-8.479-6.498h-9.619v13.033H136.935z"/>
		<path fill="#1E1E1C" d="M166.629,35.604h0.696l12.374,25.883h-0.88l-3.672-7.711h-16.375l-3.671,7.711h-0.846L166.629,35.604z
			 M174.78,53.041l-7.821-16.371l-7.819,16.371H174.78z"/>
		<path fill="#1E1E1C" d="M191.695,36.521h-9.287v-0.734h19.384v0.734h-9.288v24.965h-0.809V36.521z"/>
		<path fill="#1E1E1C" d="M216.873,35.604h0.697l12.373,25.883h-0.88l-3.672-7.711h-16.374l-3.672,7.711H204.5L216.873,35.604z
			 M225.024,53.041l-7.821-16.371l-7.818,16.371H225.024z"/>
		<path fill="#1E1E1C" d="M49.454,43.867l0.296,2.016l0.455,1.02c0.009,0.219,0.191,0.836,1.039,3.064l-0.016,0.117l-0.419,1.072
			l0.355,0.611c0.194,0.518,0.436,0.811,0.723,0.867c0.556,0.111,0.923-0.717,0.962-0.811l0.102-0.165l-0.571-1.315l-0.354-0.389
			l-1.3-3.115c-0.023-0.18-0.141-0.578-0.721-1.807L49.454,43.867z M51.945,51.848l0.094-0.15l0.109,0.1l-0.04,0.256L51.945,51.848z
			 M51.381,50.555l0.091-0.131l0.4,0.136l0.192,0.474l-0.137,0.465C51.764,51.422,51.578,51.107,51.381,50.555z"/>
	</g>
	<g>
		<path fill="#E6344B" d="M196.769,20.008c0.059-0.105,0.132-0.231,0.224-0.372l0.172-0.119l0.471-0.695l0.18-0.155l0.117-0.162
			c0.038-0.083,0.157-0.279,0.535-0.671l0.378-0.394l1.576-2.559l0.835-1.188l0.862-1.464l0.076-0.207
			c0.373-0.566,0.707-1.163,1.02-1.85c0.048-0.246,0.088-0.604-0.141-0.896l-0.064-0.093l-0.278-0.13l-0.077-0.461h-0.625
			l-0.595,0.198c-0.068-0.002-0.15-0.006-0.249-0.006c-0.531,0-1.104,0.103-1.655,0.295l-1.617,0.142l-1.575,0.589l-1.146,0.232
			c-0.25,0.104-0.483,0.192-0.703,0.267c-0.073-0.215-0.146-0.446-0.214-0.702l-0.465-0.903L193.33,7.14l-0.884-1.379
			c-0.38-1.068-0.802-1.559-0.973-1.759l-0.144-0.458l-0.455-0.642l-0.428,0.232l-0.162-0.096l-0.224-0.045
			c-0.351,0-0.6,0.233-0.778,0.436l-0.059,0.086c-0.293,0.58-0.548,1.184-0.761,1.799l-0.775,1.854l-0.406,1.335l-0.724,2.009
			l-0.311,0.72l-0.107,0.643c-0.08,0.536-0.164,0.755-0.203,0.833l-0.07,0.428l-0.265,0.711l0.013,0.299
			c-0.053,0.157-0.106,0.292-0.155,0.404c-0.074,0.178-0.113,0.232-0.125,0.232l-0.245,0.177l0.111,0.339
			c-0.028,0.046-0.081,0.128-0.182,0.263l-0.139,0.477c-0.712,1.335-0.875,1.783-0.9,2.044l-0.009,0.09l0.04,0.115
			c-0.022,0.174-0.003,0.383,0.126,0.625l0.222,0.4l0.576-0.312c0.074-0.006,0.148-0.011,0.221-0.031
			c0.221-0.06,0.424-0.208,0.621-0.42l1.03-0.438l0.208,0.001l0.178,0.174l0.496-0.091c0.333,0.167,0.769-0.095,1.097-0.35
			c0.05-0.039,0.155-0.122,0.17-0.143c0.134-0.015,0.23-0.083,0.286-0.124c0.043-0.028,0.171-0.111,0.263-0.096l0.169,0.106
			l1.266-0.443l0.354-0.083l0.5,1.497l0.212,0.059c0.018,0.02,0.041,0.08,0.052,0.265c0.004,0.054,0.011,0.16,0.063,0.265
			c0.006,0.063,0.006,0.177,0.006,0.25c0,0.18,0,0.387,0.038,0.567c0.06,0.291,0.203,0.436,0.353,0.505l0.238,0.455l0.211,0.03
			l0.166,0.176l0.265,0.997l-0.071,0.063c-0.487,0.595-0.633,1.113-0.432,1.539c0.286,0.599,1.143,0.725,1.812,0.725
			c0.14,0,0.24-0.004,0.245-0.006l0.363,0.007l1.088-1.45l0.254-0.719l2.545-3.33c0.211-0.171,0.58-0.578,1.531-1.942l1.583-2.27
			l-2.868,2.237l-0.887,1.195c-0.245,0.173-0.722,0.683-1.906,2.115v-0.047C196.654,20.243,196.672,20.181,196.769,20.008z
			 M186.97,16.018l-0.002-0.144l0.318-1.59l0.227-0.578l0.104-0.692l0.458-1.307l0.215-1.12l0.243-0.495l1.122-3.617l0.058-0.413
			l0.33-0.715l0.063,0.172l1.314,2.67l0.436,1.01c0.03,0.199,0.18,0.736,0.436,1.519l0.044,0.078
			c-0.054,0.032-0.107,0.063-0.139,0.079c-0.12-0.021-0.31-0.014-0.604,0.068c-0.352-0.1-0.788,0.049-0.983,0.148l-0.174,0.032
			c-0.042-0.001-0.077-0.014-0.118-0.044l-0.218-0.083l-0.319,0.01l-0.305,0.327l-0.102,0.184c-0.059,0.159-0.186,0.509,0.005,0.767
			l0.136,0.272l0.442,1.418c-0.065,0.266-0.049,0.48,0.05,0.652c0.054,0.097,0.133,0.173,0.227,0.227l0.007,0.147
			c0.003,0.061,0.021,0.144,0.046,0.231l-0.762,0.422c-0.148,0.073-1.392,0.496-2.7,0.778L186.97,16.018z M198.374,14.908
			l-0.212,0.439l-0.779,0.891l-0.643,0.919l-0.623,0.793l-0.214,0.389l-1.052,1.231l-0.387,0.552
			c-0.591-1.217-1.023-2.479-1.057-2.637l-0.124-0.778c0.049-0.022,0.103-0.044,0.142-0.072l0.114-0.08
			c0.343,0.146,0.715-0.132,0.866-0.324l0.93-0.37l0.742-0.208c0.325,0,0.524-0.306,0.651-0.507l0.099-0.42l-0.03-0.252
			l-0.197-0.258l-0.138-0.041c-0.045-0.012-0.07-0.029-0.057-0.002l-0.127-0.229c-0.037-0.199-0.156-0.624-0.492-0.866
			c-0.104-0.27-0.197-0.409-0.307-0.509c-0.01-0.051-0.021-0.137-0.041-0.287l0.258-0.04c0.684-0.255,1.2-0.466,1.284-0.527
			l1.133-0.307l2.974-0.611l0.134-0.038l-0.354,0.692l-0.336,0.348L198.374,14.908z M192.154,14.041
			c-0.277-0.528-0.487-0.925-0.655-1.228l0.125,0.03l1.598-0.053l0.045-0.013l0.021,0.054l0.958,1.348l0.131,0.124
			c-0.354,0.054-0.817,0.135-1.429,0.244c-0.161,0.03-0.319,0.055-0.483,0.084C192.361,14.437,192.257,14.239,192.154,14.041z
			 M196.335,20.681c0.001-0.002,0.001-0.004,0.002-0.007l0.005-0.002C196.34,20.674,196.337,20.678,196.335,20.681z"/>
		<path fill="#E6344B" d="M26.107,12.343v-0.072l-0.331-0.389h-0.091c-0.062,0-0.252-0.049-0.667-0.495l-1.42-0.614
			c-0.342-0.094-0.611-0.088-0.809,0.016l-0.084,0.046l-0.062,0.377l-1.151,0.262l-1.308,0.549
			c-0.404,0.123-1.069,0.078-2.068-0.141l-1.515,0.004l-2.104,0.453l-0.153-0.193l-0.15,0.221c-1.201,1.788-1.082,2.012-1.032,2.107
			c0.044,0.08,0.122,0.126,0.215,0.126l0.068-0.003l0.038-0.019c0.252-0.121,0.941-0.299,2.79-0.46
			c1.595-0.182,3.016-0.179,4.121-0.007l0.665,0.199l0.73,0.007l0.536-0.492l0.543-0.112c0.026,0.047,0.09,0.221,0.046,0.788
			l-0.729,3.99c-0.133,0.838-0.959,2.242-2.438,4.155l-1.187,1.155l-2.094,1.697l-1.265,0.691c-0.447,0.244-1.599,0.332-3.344,0.253
			c-1.297-0.095-2.482-0.413-3.504-0.935c-1.69-1.118-2.787-2.157-3.246-3.063l-0.884-2.585l-0.354-2.244l-0.146-2.023L3.86,14.19
			l0.864-2.383C5.26,10.77,6.094,9.632,7.195,8.438l2.996-2.671c0.623-0.441,1.852-1.079,3.606-1.883L15.604,3.5l0.139-0.567
			l-0.525-0.445V2.456l0.515-0.215c0.984-0.069,1.338-0.22,1.499-0.363l1.953-0.113l0.682,0.179
			c0.869,0.415,1.195,0.631,1.315,0.734l0.506,2.433l0.362,0.259c0.061,0.534,0.244,0.855,0.553,0.978l0.818,0.068l1.295-0.343
			l0.378-0.321l-0.391-1.517c0.201-0.914,0.275-1.683,0.221-2.285l-0.021-0.073c-0.087-0.165-0.297-0.363-0.706-0.314l-0.593-0.421
			l-1.29,0.084c-0.975-0.208-1.582-0.311-1.86-0.311c-0.039,0-0.103,0-0.162,0.018l-0.592-0.188l-0.05-0.009
			c-1.134-0.044-1.932,0.001-2.446,0.144l-1.678-0.064c-0.308,0-0.469,0.13-0.553,0.263c-0.014-0.001-0.024-0.001-0.035-0.001
			c-0.507,0-1.506,0.344-3.053,1.053H11.56l-0.195,0.174c-0.149-0.01-0.376,0.01-1.229,0.526c-0.899,0.47-1.9,1.122-2.998,1.961
			L6.289,5.659l-0.581,0.4L5.375,6.503L4.273,7.556L2.998,9.07l-1.11,1.596l-0.676,1.191l-0.875,2.126l-0.089,0.692l-0.131,0.249
			L0.1,14.976c-0.144,0.702-0.189,1.51-0.132,2.389c0,0.804,0.387,2.131,1.171,4.027c0.151,0.696,0.724,1.659,1.844,2.088
			l1.043,0.878l1.55,0.948l0.208,0.261l1.326,0.908l0.981,0.41l2.582,0.798h2.308l0.482-0.163l0.05,0.043
			c0.138,0.08,0.285,0.119,0.442,0.119c0.256,0,1.088,0.463,1.388,0.246l2.142-0.219c0.613,0.192,1.506-0.222,1.745-0.268
			l1.008-0.141l0.849-0.653l1.374-2.027l0.387-1.132l0.213-0.278l1.395-3.128l0.308-0.295l0.012-0.061
			c0.094-0.479,0.282-0.944,0.559-1.381l0.628-2.067l0.458-2.942l-0.126-0.064C26.273,13.264,26.107,13.155,26.107,12.343z"/>
		<path fill="#E6344B" d="M33.778,14.113l0.018,0.071l0.287,0.202l0.084,0.034c0.475,0.064,0.876,0.054,1.207-0.034l-0.157,2.844
			l-0.228,1.177c-0.077,1.584-0.079,2.625-0.005,3.176l-0.208,0.86v0.712l0.007,0.102l0.077,0.059
			c0.003,0.001,0.118,0.096,0.071,0.765l-0.27,2.273c0,0.264,0.212,0.433,0.627,0.505c0.05,0.024,0.108,0.037,0.173,0.037
			c0.127,0,0.346-0.042,0.82-0.374c0.08,0.246,0.184,0.426,0.316,0.544v0.231l0.474,0.349l1.385,0.313l0.719-0.135
			c0.884,0.067,1.636,0.185,2.237,0.351c0.063,0.036,0.142,0.052,0.243,0.052c0.236,0,0.646-0.096,1.248-0.295
			c2.381,0.171,3.758,0.119,4.29-0.177l0.915,0.023l0.348-0.334l1.757-0.463c0.085,0.039,0.181,0.044,0.257,0.044
			c0.192,0,0.478-0.046,0.869-0.139l0.149-0.035v-0.689l-0.305-0.046c-0.121-0.149-0.352-0.277-0.723-0.402
			c-0.721-0.157-1.178-0.195-1.454-0.113l-1.938-0.116L46.999,25.4l-0.106,0.014c-0.518,0.069-0.976,0.056-1.354-0.038l-0.035-0.009
			l-1.779,0.21l-2.196-0.142c-0.878,0.101-1.418,0.102-1.476,0.088l-0.156-0.133l-0.137,0.188c-0.018,0-0.056-0.004-0.124-0.032
			l-0.115-0.049l-0.278,0.259l-0.238,0.05l-1.575,0.052l-0.612-0.094l-0.125,0.064l-0.146-0.098l0.1-1.253l0.462-2.109l-0.06-0.204
			l0.091-0.909l0.095-0.178l0.022-0.069c0.098-0.897,0.069-1.261,0.016-1.444c0.249-0.583,0.338-1.221,0.27-1.902l0.212-1.085
			l-0.045-0.413l0.151-1.658c0.103-0.199,0.252-0.386,0.446-0.555l1.16-0.185l2.768-0.24l0.062-0.007l0.11-0.095l3.077-0.118
			l3.569,0.154l0.371-0.078l3.718,0.557l0.069-0.966l-2.772-0.746c-2.42-0.235-4.275-0.354-5.513-0.354
			c-0.179,0-0.345,0.002-0.49,0.008c-0.281-0.004-0.497-0.067-0.64-0.185l-0.055-0.043l-1.678-0.02l-0.056,0.007
			c-0.47,0.136-0.693,0.179-0.807,0.19l-0.024-0.062l-0.581,0.15l-2.797,0.168c-0.059-0.068-0.169-0.31-0.091-1.121l0.491-3.757
			c0.46-2.236,0.734-3.112,0.891-3.445l0.769-0.23c1.77-0.264,3.122-0.404,4.026-0.417l0.091-0.001l0.053-0.063
			c0.153,0.049,0.373,0.057,0.692,0.024l0.216-0.083c0.953-0.097,1.856-0.101,2.68-0.009l0.077,0.001
			c0.478,0,1.377,0.185,2.717,0.559c1.193,0.058,1.956,0.141,2.263,0.249l0.115,0.04l0.086-0.085c0.142-0.14,0.352-0.208,0.642-0.21
			h0.104l0.058-0.088c0.249-0.381,0.387-0.404,0.421-0.404l0.172,0.02l0.315-1.288V1.177l-0.242,0.061
			c-0.18,0.046-0.465,0.011-0.83-0.099l-0.068-0.021l-0.238,0.106l-0.716-0.024l-0.528-0.184l-0.283,0.094l-0.614-0.125
			l-0.511,0.139l-0.595-0.02l-0.365-0.089l-2.681,0.079l-0.39,0.196l-2.887,0.102c-1.736,0.306-2.355,0.372-2.57,0.372
			c-0.028,0-0.048-0.002-0.053,0l-0.066-0.026l-0.649,0.234l-0.763,0.054c0.004-0.031,0.015-0.071,0.037-0.122l0.038-0.093
			l-0.653-1.036l-1.032-0.381l-0.039,0.002c-0.33,0.018-0.52,0.131-0.628,0.259l-0.053-0.06l-0.621,0.111l-0.308,1.068l-0.594,0.824
			l-0.643,0.068l-0.27-0.104l-0.75,0.091l-0.127,1.075l0.206,0.013c0.532,0.031,0.689,0.005,0.983-0.037
			c0.117-0.019,0.261-0.04,0.418-0.063l0.38,0.044c0.028,0.194,0.135,0.453,0.323,0.801l0.055,2.228L36.09,7.308l-0.267,4.586
			l-0.176,0.478l-0.941,0.167L34.587,12.4l-1.039,1.022l-0.303,0.271l0.392,0.053C33.641,13.749,33.705,13.802,33.778,14.113z"/>
		<path fill="#E6344B" d="M20.674,34.727c-0.207-0.189-0.662-0.189-1.369,0c-0.254,0-0.495-0.094-0.721-0.281
			c-0.885-0.246-2.118-0.367-3.7-0.367c-1.844,0.281-3.756,0.851-5.733,1.707l-3.163,2.117l-0.662,0.637l-0.791,0.494
			c-1.178,1.402-1.742,2.246-1.695,2.529l-0.607,0.916l-1.187,3.037l-0.069,0.424l-0.254,0.509c0.093,0.036,0,0.452-0.283,1.242
			v0.649C0.277,48.811,0.133,49.539,0,50.527l-0.057,2.416c0,1.921,0.523,3.757,1.569,5.508c0.347,0.461,0.96,1.092,1.835,1.893
			l1.666,0.916c0.782,0.434,2.204,0.65,4.265,0.65c1.676-0.15,3.329-0.56,4.956-1.229c1.093-0.471,2.081-1.129,2.966-1.977
			l0.185-0.693h-0.128c-0.396,0.377-1.469,0.82-3.22,1.328c-0.272,0.048-0.361,0.217-0.268,0.508l0.663-0.084
			c0-0.085,0.152-0.154,0.451-0.211l0.085,0.211l-0.154,0.156c-0.179-0.104-0.683-0.01-1.512,0.282l-1.582,0.142
			c-1.006-0.283-1.751-0.359-2.23-0.227c-0.272-0.235-0.626-0.354-1.059-0.354l-0.27-0.268l-0.988-0.283l-1.046-0.705l-1.057-1.412
			l-0.327-0.156l-0.408-0.55l-0.664-1.694c-0.263-0.66-0.344-1.131-0.24-1.412l-0.338-0.988l-0.197-1.852
			c-0.038-2.579,0.597-5.234,1.905-7.965l2.049-2.611l1.114-1.061l0.932-0.621l2.485-1.271l0.537-0.068l0.536-0.283
			c0.613,0,0.967-0.076,1.061-0.226h1.892l1.256,0.352l0.722,0.438c0.584,0.744,0.876,1.188,0.876,1.328l0.323,0.352l0.396,0.157
			l0.057-0.071l0.467,0.071c0.743-0.142,1.228-0.354,1.453-0.637c0.302-0.471,0.52-1.153,0.649-2.047
			C21.21,35.291,20.9,34.773,20.674,34.727z M5.071,59.764l0.661-0.07c1.356,0.518,2.893,0.988,4.604,1.413l0.057,0.153
			l-0.396,0.129c-0.912-0.084-1.393-0.084-1.44,0L8.303,61.26l-1.255-0.153c-0.924-0.368-1.497-0.649-1.723-0.848
			C5.062,60.07,4.977,59.904,5.071,59.764z"/>
		<path fill="#E6344B" d="M54.103,56.862l-0.254-1.122l-0.041-0.119l0.117-0.539l-0.29-0.771c0.106-0.122,0.231-0.288,0.407-0.556
			l0.832-1.566l0.02-0.453l-0.023-0.041c-0.098-0.18-0.321-0.301-0.752-0.393c-0.692,0.011-1.395,0.057-2.099,0.119
			c-0.022-0.03-0.046-0.06-0.078-0.097c-0.222-0.249-0.736-0.837-0.628-1.722l0.006-0.06l-1.299-2.507L49.876,46.7l-0.264-0.417
			l-0.552-1.604c-0.11-0.452-0.289-0.751-0.42-0.969c-0.066-0.114-0.126-0.215-0.146-0.289l-0.051-0.193
			c0.054-0.723-0.396-1.676-0.612-1.907l-0.399-0.439l-0.131-0.636c0.045-0.287-0.004-0.752-0.691-0.99l-1.324-2.347l-0.524-1.058
			l-0.373-0.955c-0.037-0.298-0.438-0.41-0.591-0.454l-0.067-0.02l-0.436,0.188l-0.082,0.247l0.002,0.039
			c0.026,0.366-0.009,0.722-0.1,1.037l-0.337,0.759c-0.141,0.154-0.784,0.906-0.802,1.925l-0.089,0.195
			c-0.441,0.724-0.479,0.995-0.502,1.194c-0.023,0.169-0.037,0.272-0.573,0.84l-0.117,0.125l0.05,0.061
			c-0.139,0.463-1.096,2.983-3.113,5.805L36.49,49.24l-2.04,3.053l-0.642,1.688c-0.12-0.008-0.259-0.023-0.422-0.046l-0.029-0.005
			l-0.754,0.14c-1.898-0.01-2.994,0.042-3.379,0.171l-0.453,0.398l-0.003,0.08c-0.011,0.245,0.071,0.456,0.244,0.625
			c0.403,0.393,1.31,0.536,2.77,0.438l1.41-0.178l-0.22,0.578c-1.238,2.031-1.666,3.541-1.873,4.269
			c-0.045,0.159-0.078,0.274-0.085,0.306l-0.684,0.973l-0.216,0.685l0.252,0.354l0.307,0.104l0.063,0.012
			c0.227,0,1.164-0.104,1.59-0.433l0.814-1.454l2.925-6.048l0.791-0.194l0.848-0.064l1.27-0.373l0.285,0.051l1.808-0.289
			l1.895-0.486l0.885-0.015l6.012-0.94l0.655-0.201c0.752,1.533,1.852,3.934,2.733,6.309l1.666,2.319l-0.043,0.04l0.408,0.773
			c0.1,0.242,0.374,0.539,0.993,0.418l0.03,0.002c0.294,0,0.541-0.232,0.761-0.709l0.048-0.104l-1.507-2.092L54.103,56.862z
			 M47.778,51.764l-2.287,0.372l-3.509,0.415l-1.277,0.082l-0.854,0.254c-0.709,0.211-1.248,0.322-1.596,0.325h-0.034l-0.458,0.179
			l-0.938,0.102l0.863-1.578c0.187-0.204,0.756-0.982,1.813-2.589l0.381-0.901l0.114-0.68l2.102-3.611l1.293-3.826l0.402-2.508
			c0.08-0.121,0.138-0.233,0.182-0.334c0.053,0.644,0.676,2.369,1.91,5.674c0.51,1.369,1.038,2.785,1.438,3.938l0.978,1.882
			l1.361,1.868l0.007,0.003c0.062,0.089,0.205,0.35,0.401,0.729L47.778,51.764z M52.73,52.328l0.371-0.015l0.319,0.038l0.03,0.068
			c-0.039,0.197-0.096,0.369-0.15,0.545C53.142,52.738,52.932,52.523,52.73,52.328z"/>
	</g>
</g>
</svg>
