<svg xmlns="http://www.w3.org/2000/svg" xmlns:xlink="http://www.w3.org/1999/xlink" viewBox="4056 271 280.66 18.524">
  <defs>
    <style>
      .cls-1, .cls-3 {
        fill: none;
      }

      .cls-2 {
        clip-path: url(#clip-path);
      }

      .cls-3 {
        stroke: #000;
        stroke-width: 0.556px;
      }

      .cls-4 {
        fill: #ff424d;
      }
    </style>
    <clipPath id="clip-path">
      <path id="Path_86" data-name="Path 86" class="cls-1" d="M0-18.524H280.66V0H0Z" transform="translate(0 18.524)"/>
    </clipPath>
  </defs>
  <g id="Group_120" data-name="Group 120" transform="translate(4056 271)">
    <g id="Group_119" data-name="Group 119" class="cls-2">
      <g id="Group_86" data-name="Group 86">
        <path id="Path_53" data-name="Path 53" d="M0,0V-.048C0-4.463,3.141-8.594,8.169-8.594a8.138,8.138,0,0,1,5.737,2.125l-.33.4a7.939,7.939,0,0,0-5.43-2.054A7.784,7.784,0,0,0,.521-.072v.048c0,4.3,2.833,8.051,7.648,8.051A9.159,9.159,0,0,0,14.048,5.76V.448H7.956v-.52h6.611V5.949A9.514,9.514,0,0,1,8.146,8.5C2.976,8.5,0,4.6,0,0" transform="translate(0.754 9.411)"/>
      </g>
      <g id="Group_87" data-name="Group 87">
        <path id="Path_54" data-name="Path 54" class="cls-3" d="M0,0V-.048C0-4.463,3.141-8.594,8.169-8.594a8.138,8.138,0,0,1,5.737,2.125l-.33.4a7.939,7.939,0,0,0-5.43-2.054A7.784,7.784,0,0,0,.521-.072v.048c0,4.3,2.833,8.051,7.648,8.051A9.159,9.159,0,0,0,14.048,5.76V.448H7.956v-.52h6.611V5.949A9.514,9.514,0,0,1,8.146,8.5C2.976,8.5,0,4.6,0,0Z" transform="translate(0.754 9.411)"/>
      </g>
      <g id="Group_88" data-name="Group 88">
        <path id="Path_55" data-name="Path 55" d="M0,0H11.545V.472H.52V7.979H10.529v.473H.52v7.6H11.663v.472H0Z" transform="translate(22.236 1.1)"/>
      </g>
      <g id="Group_89" data-name="Group 89">
        <path id="Path_56" data-name="Path 56" class="cls-3" d="M0,0H11.545V.472H.52V7.979H10.529v.473H.52v7.6H11.663v.472H0Z" transform="translate(22.236 1.1)"/>
      </g>
      <g id="Group_90" data-name="Group 90">
        <path id="Path_57" data-name="Path 57" d="M0,0H.448L13.009,15.677V0h.5V16.526h-.448L.5.85V16.526H0Z" transform="translate(40.2 1.1)"/>
      </g>
      <g id="Group_91" data-name="Group 91">
        <path id="Path_58" data-name="Path 58" class="cls-3" d="M0,0H.448L13.009,15.677V0h.5V16.526h-.448L.5.85V16.526H0Z" transform="translate(40.2 1.1)"/>
      </g>
      <g id="Group_92" data-name="Group 92">
        <path id="Path_59" data-name="Path 59" d="M0,0H11.545V.472H.518V7.979H10.529v.473H.518v7.6H11.662v.472H0Z" transform="translate(60.974 1.1)"/>
      </g>
      <g id="Group_93" data-name="Group 93">
        <path id="Path_60" data-name="Path 60" class="cls-3" d="M0,0H11.545V.472H.518V7.979H10.529v.473H.518v7.6H11.662v.472H0Z" transform="translate(60.974 1.1)"/>
      </g>
      <g id="Group_94" data-name="Group 94">
        <path id="Path_61" data-name="Path 61" d="M0,0H.567L7.721,15.913,14.875,0h.543L7.91,16.645h-.4Z" transform="translate(77.355 1.1)"/>
      </g>
      <g id="Group_95" data-name="Group 95">
        <path id="Path_62" data-name="Path 62" class="cls-3" d="M0,0H.567L7.721,15.913,14.875,0h.543L7.91,16.645h-.4Z" transform="translate(77.355 1.1)"/>
      </g>
      <g id="Group_96" data-name="Group 96">
        <path id="Path_63" data-name="Path 63" d="M0,0-5.025-10.53-10.057,0ZM-5.238-11.215h.447L3.164,5.43H2.6L.238.472H-10.293L-12.652,5.43h-.543Z" transform="translate(107.71 12.196)"/>
      </g>
      <g id="Group_97" data-name="Group 97">
        <path id="Path_64" data-name="Path 64" class="cls-3" d="M0,0-5.025-10.53-10.057,0ZM-5.238-11.215h.447L3.164,5.43H2.6L.238.472H-10.293L-12.652,5.43h-.543Z" transform="translate(107.71 12.196)"/>
      </g>
      <g id="Group_98" data-name="Group 98">
        <path id="Path_65" data-name="Path 65" d="M0,0V-.048A8.233,8.233,0,0,1,8.121-8.594,8.172,8.172,0,0,1,14.4-5.974l-.353.354A7.935,7.935,0,0,0,8.1-8.122,7.77,7.77,0,0,0,.52-.072v.048A7.772,7.772,0,0,0,8.1,8.027a8.137,8.137,0,0,0,6.023-2.691l.375.353A8.621,8.621,0,0,1,8.072,8.5,8.184,8.184,0,0,1,0,0" transform="translate(114.765 9.411)"/>
      </g>
      <g id="Group_99" data-name="Group 99">
        <path id="Path_66" data-name="Path 66" class="cls-3" d="M0,0V-.048A8.233,8.233,0,0,1,8.121-8.594,8.172,8.172,0,0,1,14.4-5.974l-.353.354A7.935,7.935,0,0,0,8.1-8.122,7.77,7.77,0,0,0,.52-.072v.048A7.772,7.772,0,0,0,8.1,8.027a8.137,8.137,0,0,0,6.023-2.691l.375.353A8.621,8.621,0,0,1,8.072,8.5,8.184,8.184,0,0,1,0,0Z" transform="translate(114.765 9.411)"/>
      </g>
      <g id="Group_100" data-name="Group 100">
        <path id="Path_67" data-name="Path 67" d="M0,0-5.029-10.53-10.057,0ZM-5.24-11.215h.447L3.164,5.43H2.6L.238.472H-10.293L-12.656,5.43H-13.2Z" transform="translate(146.611 12.196)"/>
      </g>
      <g id="Group_101" data-name="Group 101">
        <path id="Path_68" data-name="Path 68" class="cls-3" d="M0,0-5.029-10.53-10.057,0ZM-5.24-11.215h.447L3.164,5.43H2.6L.238.472H-10.293L-12.656,5.43H-13.2Z" transform="translate(146.611 12.196)"/>
      </g>
      <g id="Group_102" data-name="Group 102">
        <path id="Path_69" data-name="Path 69" d="M0,0H.5L7.7,10.247,14.9,0h.471V16.526h-.515V.874L7.7,11.073H7.674L.52.874V16.526H0Z" transform="translate(155.462 1.1)"/>
      </g>
      <g id="Group_103" data-name="Group 103">
        <path id="Path_70" data-name="Path 70" class="cls-3" d="M0,0H.5L7.7,10.247,14.9,0h.471V16.526h-.515V.874L7.7,11.073H7.674L.52.874V16.526H0Z" transform="translate(155.462 1.1)"/>
      </g>
      <g id="Group_104" data-name="Group 104">
        <path id="Path_71" data-name="Path 71" d="M0,0H11.543V.472H.518V7.979H10.529v.473H.518v7.6H11.664v.472H0Z" transform="translate(178.101 1.1)"/>
      </g>
      <g id="Group_105" data-name="Group 105">
        <path id="Path_72" data-name="Path 72" class="cls-3" d="M0,0H11.543V.472H.518V7.979H10.529v.473H.518v7.6H11.664v.472H0Z" transform="translate(178.101 1.1)"/>
      </g>
      <g id="Group_106" data-name="Group 106">
        <path id="Path_73" data-name="Path 73" d="M0,0C3.826,0,5.666-1.819,5.666-4.155V-4.2c0-2.62-2.029-4.178-5.453-4.178H-5.973V0ZM-6.492-8.854H.26A6.48,6.48,0,0,1,5.006-7.3a4.207,4.207,0,0,1,1.18,3.069v.047C6.186-1.393,3.967.26.779.449l5.5,7.224H5.643L.166.473H-5.973v7.2h-.519Z" transform="translate(202.556 9.953)"/>
      </g>
      <g id="Group_107" data-name="Group 107">
        <path id="Path_74" data-name="Path 74" class="cls-3" d="M0,0C3.826,0,5.666-1.819,5.666-4.155V-4.2c0-2.62-2.029-4.178-5.453-4.178H-5.973V0ZM-6.492-8.854H.26A6.48,6.48,0,0,1,5.006-7.3a4.207,4.207,0,0,1,1.18,3.069v.047C6.186-1.393,3.967.26.779.449l5.5,7.224H5.643L.166.473H-5.973v7.2h-.519Z" transform="translate(202.556 9.953)"/>
      </g>
      <g id="Group_108" data-name="Group 108">
        <path id="Path_75" data-name="Path 75" d="M0,0-5.029-10.53-10.057,0ZM-5.24-11.215h.449L3.164,5.43H2.6L.236.472H-10.291L-12.654,5.43H-13.2Z" transform="translate(226.894 12.196)"/>
      </g>
      <g id="Group_109" data-name="Group 109">
        <path id="Path_76" data-name="Path 76" class="cls-3" d="M0,0-5.029-10.53-10.057,0ZM-5.24-11.215h.449L3.164,5.43H2.6L.236.472H-10.291L-12.654,5.43H-13.2Z" transform="translate(226.894 12.196)"/>
      </g>
      <g id="Group_110" data-name="Group 110">
        <path id="Path_77" data-name="Path 77" d="M0,0H-5.973V-.472H6.492V0H.521V16.054H0Z" transform="translate(237.773 1.572)"/>
      </g>
      <g id="Group_111" data-name="Group 111">
        <path id="Path_78" data-name="Path 78" class="cls-3" d="M0,0H-5.973V-.472H6.492V0H.521V16.054H0Z" transform="translate(237.773 1.572)"/>
      </g>
      <g id="Group_112" data-name="Group 112">
        <path id="Path_79" data-name="Path 79" d="M0,0-5.027-10.53-10.057,0ZM-5.238-11.215h.447L3.164,5.43H2.6L.238.472H-10.291L-12.652,5.43h-.543Z" transform="translate(259.205 12.196)"/>
      </g>
      <g id="Group_113" data-name="Group 113">
        <path id="Path_80" data-name="Path 80" class="cls-3" d="M0,0-5.027-10.53-10.057,0ZM-5.238-11.215h.447L3.164,5.43H2.6L.238.472H-10.291L-12.652,5.43h-.543Z" transform="translate(259.205 12.196)"/>
      </g>
      <g id="Group_114" data-name="Group 114">
        <path id="Path_81" data-name="Path 81" class="cls-4" d="M0,0-.137.25l-.679.792-.246.355A12.621,12.621,0,0,1-1.744-.3l-.08-.5a.464.464,0,0,0,.092-.046L-1.658-.9A.521.521,0,0,0-1.1-1.105l.6-.239.479-.134c.211,0,.338-.2.42-.326l.062-.27L.436-2.236.309-2.4.221-2.428c-.028-.009-.045-.018-.035,0L.1-2.577a.9.9,0,0,0-.317-.557.792.792,0,0,0-.2-.327c-.006-.033-.012-.087-.025-.185l.166-.025A7.52,7.52,0,0,0,.553-4.01l.73-.2L3.195-4.6l.088-.025-.228.445-.217.224-1.387,2-.137.283-.5.573L.4-.511ZM.139,1.755s0,0,0,0h0a.009.009,0,0,1,0,0M-2.039-2.188l-.311.054c-.068-.126-.134-.252-.2-.38-.18-.34-.316-.6-.422-.789l.08.019,1.028-.034.029-.008.012.034.617.868.084.079c-.227.035-.525.087-.918.157m-1.5-2.223-.113.021a.117.117,0,0,1-.074-.028l-.141-.054-.205.007-.2.209-.065.118a.534.534,0,0,0,0,.493l.088.175.283.913a.564.564,0,0,0,.033.419.369.369,0,0,0,.147.146l0,.094a.613.613,0,0,0,.029.149l-.49.272a12.938,12.938,0,0,1-1.737.5l.092-.265v-.093l.2-1.021.149-.374.066-.444.3-.84.137-.721.156-.317.721-2.327.039-.265.211-.46.041.111.846,1.717.281.649a8.623,8.623,0,0,0,.279.977l.029.05-.089.05a.908.908,0,0,0-.389.044,1,1,0,0,0-.633.1M.416,1.323c.039-.068.088-.148.146-.239L.67,1.007.975.56l.115-.1.076-.1A1.767,1.767,0,0,1,1.51-.074l.244-.254L2.766-1.974l.539-.763.554-.941.047-.134A8.4,8.4,0,0,0,4.562-5a.686.686,0,0,0-.091-.577L4.43-5.636,4.252-5.72l-.051-.3H3.8l-.383.127c-.043,0-.1,0-.162,0a3.274,3.274,0,0,0-1.065.19l-1.039.09L.141-5.234-.6-5.085c-.162.067-.312.124-.455.172-.045-.138-.094-.287-.136-.451l-.3-.58-.309-1.008-.568-.887A3.324,3.324,0,0,0-2.986-8.97l-.094-.294-.293-.414-.273.15-.106-.063-.143-.028a.685.685,0,0,0-.5.28l-.038.056a9.5,9.5,0,0,0-.488,1.157l-.5,1.192-.262.859-.464,1.292-.2.463-.07.413a1.879,1.879,0,0,1-.131.536l-.045.276-.17.457.01.192c-.035.1-.07.188-.1.26-.047.115-.071.149-.081.149l-.158.114.073.218c-.018.03-.053.082-.116.169l-.09.307A4.559,4.559,0,0,0-7.807.085l0,.059.024.073A.668.668,0,0,0-7.7.62l.143.257.371-.2a.667.667,0,0,0,.14-.021.893.893,0,0,0,.4-.269L-5.99.1h.135l.115.112.32-.059c.213.108.492-.061.7-.225A1.234,1.234,0,0,0-4.605-.16a.369.369,0,0,0,.181-.079A.3.3,0,0,1-4.254-.3l.109.069.813-.286L-3.1-.57l.321.963.138.036A.354.354,0,0,1-2.613.6a.447.447,0,0,0,.041.17c0,.04,0,.114,0,.16a1.793,1.793,0,0,0,.025.365.418.418,0,0,0,.227.325l.154.293.135.02.1.112.172.642-.045.041c-.316.382-.406.715-.279.988.183.386.734.467,1.166.467.09,0,.154,0,.158,0l.232.005.7-.934.164-.462L1.98.647A6.638,6.638,0,0,0,2.965-.6L3.984-2.061,2.141-.623,1.57.146A9.839,9.839,0,0,0,.346,1.506v-.03a.7.7,0,0,1,.07-.153" transform="translate(276.074 10.45)"/>
      </g>
      <g id="Group_115" data-name="Group 115">
        <path id="Path_82" data-name="Path 82" class="cls-4" d="M0,0V-.046L-.212-.3H-.271C-.312-.3-.434-.328-.7-.615l-.914-.394a.713.713,0,0,0-.52.01l-.055.029-.039.243-.741.168-.841.353A2.947,2.947,0,0,1-5.139-.3l-.974,0L-7.465,0l-.1-.124-.1.142c-.774,1.15-.695,1.294-.664,1.354a.153.153,0,0,0,.138.082l.043,0,.026-.013a6.51,6.51,0,0,1,1.794-.3,10.256,10.256,0,0,1,2.65,0l.428.129.469,0,.345-.317.349-.072a1,1,0,0,1,.029.506l-.468,2.566A7.66,7.66,0,0,1-4.09,6.626l-.762.743L-6.2,8.461l-.813.443a5.293,5.293,0,0,1-2.15.163,5.856,5.856,0,0,1-2.254-.6A6.078,6.078,0,0,1-13.5,6.5l-.568-1.663L-14.3,3.391l-.093-1.3.086-.9.556-1.532a10.243,10.243,0,0,1,1.589-2.167l1.927-1.718a16.615,16.615,0,0,1,2.319-1.21l1.16-.247.09-.365L-7-6.337v-.021l.331-.139c.634-.043.861-.141.964-.233L-4.452-6.8l.438.116a4.311,4.311,0,0,1,.845.472l.325,1.564.235.167c.039.343.156.55.354.629l.526.044L-.9-4.032l.244-.206L-.9-5.214A4.976,4.976,0,0,0-.762-6.683L-.775-6.73a.421.421,0,0,0-.454-.2l-.382-.27-.829.054a7.718,7.718,0,0,0-1.2-.2.382.382,0,0,0-.1.011l-.38-.121-.032,0a5.581,5.581,0,0,0-1.574.092L-6.8-7.412a.389.389,0,0,0-.357.169h-.022a6.26,6.26,0,0,0-1.962.678h-.209l-.126.111c-.1-.006-.242.007-.79.338A13.634,13.634,0,0,0-12.2-4.855l-.545.557-.375.257-.214.286-.708.676-.82.974-.714,1.027-.435.766-.563,1.367-.057.445-.084.16-.011.033a5.894,5.894,0,0,0-.086,1.537,8.028,8.028,0,0,0,.754,2.589,1.928,1.928,0,0,0,1.186,1.343l.67.565,1,.611.135.166.852.584.632.264,1.66.513h1.485l.31-.1.031.027a.554.554,0,0,0,.284.077c.166,0,.7.3.894.158l1.377-.14a2.275,2.275,0,0,0,1.122-.174l.648-.089.546-.421.883-1.3.249-.729.136-.179.9-2.011.2-.189.008-.039A2.558,2.558,0,0,1-.5,3.86l.4-1.329L.2.639.119.6C.106.592,0,.523,0,0" transform="translate(16.826 8.304)"/>
      </g>
      <g id="Group_116" data-name="Group 116">
        <path id="Path_83" data-name="Path 83" class="cls-4" d="M0,0-.044-.013-.2.055-.658.04-1-.078l-.181.06-.4-.081-.328.09-.383-.013L-2.52-.079l-1.724.051L-4.494.1-6.352.163A13.478,13.478,0,0,1-8,.4a.161.161,0,0,0-.033,0L-8.08.385-8.5.536-8.989.57A.326.326,0,0,1-8.965.492l.026-.06-.422-.666-.662-.245h-.026a.54.54,0,0,0-.4.166l-.033-.038-.4.072-.2.686-.382.53-.413.044-.174-.066-.482.058-.082.692.133.008a2.456,2.456,0,0,0,.632-.024l.269-.041.244.029a1.734,1.734,0,0,0,.208.515l.035,1.433-.107.381-.172,2.95-.113.307-.606.108-.076-.09-.668.657-.195.175.252.034s.044.036.092.235l.011.047.184.13.055.021a2.039,2.039,0,0,0,.775-.021l-.1,1.828-.146.757a13.507,13.507,0,0,0,0,2.043l-.135.553v.458l0,.065.051.038s.076.062.047.492l-.174,1.462c0,.171.135.278.4.325a.249.249,0,0,0,.112.023.97.97,0,0,0,.527-.24.8.8,0,0,0,.2.35v.149l.305.224.89.2.463-.086a7.623,7.623,0,0,1,1.439.226.32.32,0,0,0,.156.033,3.074,3.074,0,0,0,.8-.189,6.6,6.6,0,0,0,2.76-.115l.587.016.225-.215,1.129-.3a.391.391,0,0,0,.166.029,2.658,2.658,0,0,0,.559-.089l.1-.023v-.442l-.2-.032a1.03,1.03,0,0,0-.465-.257,2.12,2.12,0,0,0-.935-.073l-1.247-.075-.044-.055-.07.009a2.4,2.4,0,0,1-.87-.024l-.022-.005-1.144.135-1.414-.092a6.165,6.165,0,0,1-.947.057l-.1-.085-.088.12a.205.205,0,0,1-.08-.021L-9,15.665l-.179.167-.154.031-1.012.033-.394-.06-.08.041-.1-.063.063-.806.3-1.356-.039-.131.059-.585.06-.114.015-.045a2.709,2.709,0,0,0,.01-.928,2.444,2.444,0,0,0,.173-1.224l.136-.7-.029-.265.1-1.067a1.217,1.217,0,0,1,.287-.357l.746-.118,1.779-.155.041,0,.071-.062,1.978-.076,2.3.1.239-.05,2.391.358.045-.621-1.784-.48C-3.532,6.979-4.727,6.9-5.522,6.9c-.115,0-.222,0-.315.005A.668.668,0,0,1-6.25,6.79l-.033-.029-1.079-.012-.036.005a3.175,3.175,0,0,1-.519.122l-.016-.04-.374.1-1.8.108c-.038-.044-.108-.2-.059-.721L-9.848,3.9a12.394,12.394,0,0,1,.573-2.215l.495-.148a21.153,21.153,0,0,1,2.589-.268h.058l.033-.041a1.127,1.127,0,0,0,.446.016l.138-.053a8.162,8.162,0,0,1,1.725-.006h.049a8.1,8.1,0,0,1,1.748.359,6.965,6.965,0,0,1,1.454.16l.073.026L-.41,1.68A.56.56,0,0,1,0,1.544H.068L.1,1.487c.161-.245.249-.259.272-.259l.109.012.2-.828V.025L.533.064A1.11,1.11,0,0,1,0,0" transform="translate(34.449 1.099)"/>
      </g>
      <g id="Group_117" data-name="Group 117">
        <path id="Path_84" data-name="Path 84" class="cls-4" d="M0,0,.426-.045A25.53,25.53,0,0,0,3.385.863l.037.1-.252.082q-.882-.082-.928,0L2.08.963l-.809-.1A4.787,4.787,0,0,1,.162.318C0,.2-.059.091,0,0M10.035-16.1c-.133-.122-.428-.122-.881,0a.72.72,0,0,1-.465-.182,9.352,9.352,0,0,0-2.377-.236,15.068,15.068,0,0,0-3.689,1.1L.592-14.058l-.43.41-.508.316Q-1.48-11.977-1.434-11.7l-.392.589-.762,1.953-.047.273-.162.327c.061.023,0,.29-.182.8v.418A7.947,7.947,0,0,0-3.26-5.939L-3.3-4.386A6.829,6.829,0,0,0-2.289-.844,10.394,10.394,0,0,0-1.109.373l1.074.59a6.218,6.218,0,0,0,2.74.418A11.029,11.029,0,0,0,5.893.592,6.47,6.47,0,0,0,7.8-.681l.119-.445H7.838a6.167,6.167,0,0,1-2.072.854q-.261.045-.17.327L6.021,0c0-.055.1-.1.291-.137L6.367,0l-.1.1c-.116-.068-.44-.007-.975.18L4.277.373A2.933,2.933,0,0,0,2.842.228,1,1,0,0,0,2.162,0L1.988-.172,1.354-.354.68-.808,0-1.716l-.209-.1L-.473-2.17-.9-3.26a1.467,1.467,0,0,1-.155-.908L-1.271-4.8-1.4-5.994A11.4,11.4,0,0,1-.172-11.116L1.145-12.8l.714-.683.6-.4,1.6-.818.345-.044.346-.182c.393,0,.621-.049.68-.146H6.646l.809.227.465.282a2.937,2.937,0,0,1,.56.854l.209.225.254.1.037-.046.3.046a1.582,1.582,0,0,0,.934-.41,3.358,3.358,0,0,0,.418-1.316c-.254-.635-.451-.969-.6-1" transform="translate(117.757 16.518)"/>
      </g>
      <g id="Group_118" data-name="Group 118">
        <path id="Path_85" data-name="Path 85" class="cls-4" d="M0,0,.238-.009l.2.025L.461.06a3.013,3.013,0,0,1-.1.35A3,3,0,0,0,0,0M-3.186-.362l-1.47.238L-6.912.145-7.732.2-8.283.36A4.174,4.174,0,0,1-9.309.569H-9.33l-.3.115-.6.065.555-1.015A20.25,20.25,0,0,0-8.506-1.931l.242-.579.075-.437,1.351-2.322.832-2.46.26-1.614a1.57,1.57,0,0,0,.117-.214A24.368,24.368,0,0,0-4.4-5.909c.328.881.668,1.791.923,2.532l.631,1.21.875,1.2,0,0c.039.057.131.224.26.468Zm2.633-.775.123.3-.06.211C-.5-.63-.5-.636-.508-.645a1.673,1.673,0,0,1-.33-.54l.027-.04ZM.883,2.916.719,2.195.691,2.118l.077-.347-.188-.5A3.774,3.774,0,0,0,.844.919L1.379-.088l.01-.292L1.375-.407C1.311-.522,1.168-.6.893-.659c-.278,0-.555.022-.834.039l-.284-.655-.228-.25-.836-2a5.187,5.187,0,0,0-.463-1.16l-.357-.75.191,1.3.293.657a3.431,3.431,0,0,0,.2.7L-1.744-3.4l-.094-.217-.17-.268-.353-1.03a2.119,2.119,0,0,0-.27-.625,1.147,1.147,0,0,1-.1-.185l-.029-.124a2.125,2.125,0,0,0-.4-1.227l-.256-.282-.086-.41a.55.55,0,0,0-.444-.636l-.851-1.509-.336-.681-.24-.613c-.024-.192-.281-.265-.381-.292l-.045-.014-.277.121-.053.16v.025a1.915,1.915,0,0,1-.063.667l-.216.489a1.988,1.988,0,0,0-.516,1.237l-.059.125a1.75,1.75,0,0,0-.322.768c-.015.109-.023.175-.369.541l-.076.08.033.039a15.365,15.365,0,0,1-2,3.733l-.734,1.544L-11.756-.022l-.412,1.085c-.078,0-.168-.015-.271-.029l-.02,0-.484.089a10.19,10.19,0,0,0-2.174.11l-.291.256,0,.052a.5.5,0,0,0,.156.4c.26.253.844.345,1.781.282l.907-.114-.141.372a10.465,10.465,0,0,0-1.2,2.745c-.029.1-.049.176-.053.2l-.439.627-.139.44.16.228.2.066.041.008a2.173,2.173,0,0,0,1.022-.279l.527-.934,1.879-3.89.508-.125.547-.041.816-.24.182.033L-7.5,1.125-6.281.812-5.715.8-1.848.2l.42-.13C-.941,1.056-.236,2.6.332,4.126L1.4,5.618l-.027.026.262.5a.51.51,0,0,0,.638.267l.02,0c.189,0,.348-.15.49-.457l.029-.065L1.848,4.544Z" transform="translate(148.408 11.736)"/>
      </g>
    </g>
  </g>
</svg>
